<?xml version="1.0" standalone="no"?>
<!DOCTYPE svg PUBLIC "-//W3C//DTD SVG 20010904//EN"
 "http://www.w3.org/TR/2001/REC-SVG-20010904/DTD/svg10.dtd">
<svg version="1.0" xmlns="http://www.w3.org/2000/svg"
 width="400.000000pt" height="64.000000pt" viewBox="0 0 400.000000 64.000000"
 preserveAspectRatio="xMidYMid meet">

<g transform="translate(0.000000,64.000000) scale(0.100000,-0.100000)"
fill="#000000" stroke="none">
<path d="M209 549 c-86 -13 -129 -60 -129 -141 0 -47 27 -100 58 -117 19 -10
19 -10 0 27 -23 43 -20 107 7 148 28 43 97 67 177 62 45 -4 66 -2 60 4 -14 14
-120 25 -173 17z"/>
<path d="M1039 550 c-78 -9 -126 -54 -136 -127 -5 -45 18 -108 46 -122 18 -10
18 -9 6 34 -38 126 46 205 204 192 51 -4 61 -3 45 6 -26 15 -108 23 -165 17z"/>
<path d="M510 405 c0 -143 0 -145 20 -135 18 10 20 21 20 133 l0 123 34 -4
c24 -3 35 1 39 12 5 14 -3 16 -53 16 l-60 0 0 -145z"/>
<path d="M742 495 l3 -55 -41 0 c-24 0 -44 -5 -47 -12 -3 -10 13 -13 62 -13
l67 0 -4 56 -4 55 36 -4 c28 -3 36 -1 36 12 0 13 -11 16 -56 16 l-56 0 4 -55z"/>
<path d="M1330 434 c4 -91 9 -116 24 -133 26 -29 38 -26 26 5 -6 14 -10 68
-10 120 l0 94 35 0 c21 0 35 5 35 13 0 8 -18 12 -58 12 l-57 0 5 -111z"/>
<path d="M1550 454 c0 -75 -3 -94 -18 -107 -10 -10 -24 -17 -31 -17 -7 0 -9
-4 -6 -10 9 -14 68 -13 83 2 8 8 12 46 12 105 l0 93 34 0 c19 0 36 6 39 13 3
9 -11 12 -54 12 l-59 0 0 -91z"/>
<path d="M1729 393 c2 -87 6 -150 8 -140 3 9 11 17 19 17 13 0 15 20 12 128
l-3 127 34 0 c19 0 36 6 38 13 3 9 -11 12 -54 12 l-58 0 4 -157z"/>
<path d="M2180 378 c0 -95 -3 -190 -6 -210 -5 -31 -3 -38 9 -38 13 0 15 11 10
70 -5 61 -4 70 11 70 14 0 16 16 16 128 l0 128 35 -4 c27 -3 35 -1 35 12 0 13
-11 16 -55 16 l-55 0 0 -172z"/>
<path d="M2600 537 c0 -8 -18 -57 -39 -110 -22 -52 -42 -110 -46 -127 -6 -29
-5 -31 15 -28 19 2 31 25 72 128 l49 125 50 -3 c40 -3 49 -1 49 12 0 13 -13
16 -75 16 -56 0 -75 -3 -75 -13z"/>
<path d="M2840 511 c0 -36 2 -38 26 -33 20 4 24 9 20 26 -5 21 -3 21 128 18
113 -3 134 -1 139 12 6 14 -13 16 -153 16 l-160 0 0 -39z"/>
<path d="M3192 511 c-2 -34 1 -38 18 -34 12 3 20 14 20 27 0 21 3 21 135 18
117 -3 135 -1 135 12 0 14 -21 16 -153 16 l-154 0 -1 -39z"/>
<path d="M3548 355 c-1 -107 -2 -207 -2 -222 -1 -14 5 -28 12 -30 9 -4 12 16
12 76 0 63 3 82 16 89 13 7 15 28 12 133 l-3 124 129 0 c95 0 130 3 133 13 4
9 -31 12 -151 12 l-156 0 -2 -195z"/>
<path d="M320 449 c0 -5 5 -7 10 -4 6 3 10 8 10 11 0 2 -4 4 -10 4 -5 0 -10
-5 -10 -11z"/>
<path d="M1157 417 c6 -48 -17 -78 -62 -81 -23 -1 -24 -2 -8 -13 23 -18 64
-16 91 3 35 24 27 112 -11 127 -11 4 -13 -4 -10 -36z"/>
<path d="M2963 453 c-21 -4 -22 -9 -25 -135 -2 -71 0 -132 5 -135 4 -2 7 12 7
31 0 20 6 39 14 43 10 6 15 35 18 106 1 53 3 96 3 96 0 -1 -10 -4 -22 -6z"/>
<path d="M3308 453 c-16 -4 -18 -18 -18 -110 0 -104 0 -106 19 -89 16 15 20
34 23 112 2 52 1 94 -2 93 -3 -1 -13 -3 -22 -6z"/>
<path d="M3758 443 c-37 -3 -58 -8 -58 -16 0 -8 19 -11 65 -9 48 3 65 7 65 18
0 8 -3 13 -7 12 -5 -1 -34 -3 -65 -5z"/>
<path d="M285 394 c0 -29 3 -34 24 -34 19 0 23 4 19 23 -4 21 -2 22 59 19 49
-3 63 -1 63 10 0 11 -19 15 -82 15 l-83 2 0 -35z"/>
<path d="M2705 417 c-4 -9 -5 -26 -2 -37 3 -12 0 -20 -8 -20 -7 0 -15 -7 -19
-15 -4 -12 4 -15 38 -15 l44 0 -18 38 c-9 20 -20 44 -22 52 -5 12 -7 12 -13
-3z"/>
<path d="M763 353 c-19 -4 -23 -11 -23 -44 0 -32 4 -39 19 -39 15 0 20 9 23
45 2 25 3 44 3 44 0 -1 -10 -4 -22 -6z"/>
<path d="M1946 341 c-95 -8 -96 -26 -1 -26 62 0 75 3 79 18 2 9 1 16 -2 15 -4
-1 -38 -4 -76 -7z"/>
<path d="M2403 342 c-44 -2 -73 -7 -76 -15 -3 -9 16 -12 69 -12 54 0 75 4 79
14 7 18 12 17 -72 13z"/>
<path d="M302 333 c-60 -6 -42 -23 24 -23 41 0 54 4 54 15 0 8 -8 14 -17 13
-10 -1 -37 -3 -61 -5z"/>
<path d="M3701 303 c1 -23 3 -29 6 -16 4 20 11 22 80 25 50 2 78 7 81 16 3 9
-18 12 -82 12 l-86 0 1 -37z"/>
<path d="M2758 283 c-13 -3 -18 -14 -18 -38 0 -18 -3 -40 -6 -49 -3 -9 -1 -16
5 -16 6 0 11 19 11 45 0 33 4 45 15 45 8 0 15 5 15 10 0 6 -1 9 -2 9 -2 -1
-11 -3 -20 -6z"/>
<path d="M997 249 c-10 -37 -8 -77 4 -85 17 -10 28 16 22 51 -9 48 -19 61 -26
34z"/>
<path d="M506 212 c-4 -24 -5 -46 -2 -49 12 -12 17 6 14 48 l-3 44 -9 -43z"/>
<path d="M2493 234 c-3 -8 -1 -20 6 -27 8 -8 11 -4 11 16 0 30 -7 35 -17 11z"/>
<path d="M291 224 c0 -11 3 -14 6 -6 3 7 2 16 -1 19 -3 4 -6 -2 -5 -13z"/>
<path d="M1059 187 c-2 -31 -1 -57 3 -57 13 0 15 15 8 65 l-6 50 -5 -58z"/>
<path d="M1469 207 c-3 -21 -2 -40 2 -43 12 -7 15 9 9 46 l-6 35 -5 -38z"/>
<path d="M3022 220 c0 -14 2 -19 5 -12 2 6 2 18 0 25 -3 6 -5 1 -5 -13z"/>
<path d="M3367 226 c-4 -10 -5 -21 -2 -24 9 -9 17 6 13 25 -3 17 -4 17 -11 -1z"/>
<path d="M3391 190 c0 -32 3 -50 8 -44 5 5 5 29 1 54 l-7 45 -2 -55z"/>
<path d="M1502 205 c0 -16 2 -22 5 -12 2 9 2 23 0 30 -3 6 -5 -1 -5 -18z"/>
<path d="M1531 214 c0 -11 3 -14 6 -6 3 7 2 16 -1 19 -3 4 -6 -2 -5 -13z"/>
<path d="M2791 214 c0 -11 3 -14 6 -6 3 7 2 16 -1 19 -3 4 -6 -2 -5 -13z"/>
<path d="M3040 190 c0 -22 5 -40 10 -40 6 0 10 18 10 40 0 22 -4 40 -10 40 -5
0 -10 -18 -10 -40z"/>
<path d="M187 187 c-5 -36 0 -50 14 -42 12 8 12 62 0 69 -5 3 -11 -9 -14 -27z"/>
<path d="M3285 207 c-4 -10 -5 -21 -1 -24 10 -10 18 4 13 24 -4 17 -4 17 -12
0z"/>
<path d="M607 203 c-11 -10 -8 -93 3 -93 6 0 10 23 10 50 0 51 -1 55 -13 43z"/>
<path d="M1720 171 c0 -23 5 -41 10 -41 6 0 10 15 10 34 0 19 -4 38 -10 41 -6
4 -10 -10 -10 -34z"/>
<path d="M1932 190 c0 -14 2 -19 5 -12 2 6 2 18 0 25 -3 6 -5 1 -5 -13z"/>
<path d="M2386 191 c-4 -7 -5 -15 -2 -18 9 -9 19 4 14 18 -4 11 -6 11 -12 0z"/>
<path d="M1531 164 c0 -11 3 -14 6 -6 3 7 2 16 -1 19 -3 4 -6 -2 -5 -13z"/>
<path d="M3021 134 c0 -11 3 -14 6 -6 3 7 2 16 -1 19 -3 4 -6 -2 -5 -13z"/>
<path d="M3360 130 c0 -5 5 -10 10 -10 6 0 10 5 10 10 0 6 -4 10 -10 10 -5 0
-10 -4 -10 -10z"/>
</g>
</svg>
